<svg aria-hidden="true" style="position:absolute;width:0;height:0;overflow:hidden" xmlns="http://www.w3.org/2000/svg"><defs><symbol id="icon-comments" viewBox="0 0 32 32"><path fill="#fff" style="fill:var(--color1, #fff)" d="M17.906 13.156c-.722 0-1.281.559-1.281 1.25s.559 1.25 1.281 1.25c.66 0 1.219-.559 1.219-1.25s-.559-1.25-1.219-1.25zm-8.75 0c-.722 0-1.281.559-1.281 1.25s.559 1.25 1.281 1.25c.659 0 1.219-.559 1.219-1.25s-.559-1.25-1.219-1.25z"/><path fill="#fff" style="fill:var(--color1, #fff)" d="M27.937 10.781a10.746 10.746 0 0 0-5.906-4.063v.003a11.374 11.374 0 0 0-1.813-1.628C15.102 1.374 7.921 2.509 4.187 7.624c-3.009 4.156-2.881 9.747.188 13.719l.025 4.144a.998.998 0 0 0 1.3.947l3.956-1.247c1.047.372 2.128.584 3.203.644l-.016.012a10.857 10.857 0 0 0 9.781 1.531l3.972 1.294a1 1 0 0 0 1.309-.95V23.53a10.808 10.808 0 0 0 .031-12.75zM10.094 22.969l-.375-.156-3.094.969-.031-3.25-.25-.281C3.7 17.026 3.525 12.379 6 8.97c3.012-4.131 8.787-5.044 12.906-2.063 4.131 3.003 5.047 8.769 2.063 12.875a9.293 9.293 0 0 1-10.875 3.188zm15.781-.531-.25.312.031 3.25-3.063-1.031-.375.156a8.634 8.634 0 0 1-5.344.219l-.006-.003a11.474 11.474 0 0 0 5.912-4.216 11.464 11.464 0 0 0 1.387-10.95l.019.012a8.42 8.42 0 0 1 1.937 1.938 8.483 8.483 0 0 1-.25 10.313z"/><path fill="#fff" style="fill:var(--color1, #fff)" d="M13.531 13.156c-.722 0-1.281.559-1.281 1.25s.559 1.25 1.281 1.25c.659 0 1.219-.559 1.219-1.25s-.559-1.25-1.219-1.25z"/></symbol><symbol id="icon-downloads" viewBox="0 0 32 32"><path fill="none" stroke="#fff" style="stroke:var(--color1, #fff)" stroke-linejoin="round" stroke-linecap="round" stroke-width="2.182" d="M5.333 22.667v2.667A2.67 2.67 0 0 0 8 28.001h16a2.668 2.668 0 0 0 2.667-2.667v-2.667m-17.334-8L16 21.334m0-.001 6.667-6.667M16 21.333v-16"/></symbol><symbol id="icon-likes" viewBox="0 0 32 32"><path fill="none" stroke="#fff" style="stroke:var(--color1, #fff)" stroke-linejoin="round" stroke-linecap="round" stroke-width="2.909" d="M10 5.333a7.333 7.333 0 0 0-7.333 7.333c0 7.333 8.667 14 13.333 15.551C20.667 26.666 29.333 20 29.333 12.666A7.333 7.333 0 0 0 16 8.449a7.313 7.313 0 0 0-6-3.116z"/></symbol><symbol id="icon-views" viewBox="0 0 32 32"><path fill="#fff" style="fill:var(--color1, #fff)" d="M30.94 15.66A16.694 16.694 0 0 0 16 5 16.689 16.689 0 0 0 1.06 15.66c-.079.22-.079.46 0 .68A16.694 16.694 0 0 0 16 27a16.689 16.689 0 0 0 14.94-10.66c.08-.22.08-.46 0-.68zM16 25c-5.3 0-10.9-3.93-12.93-9C5.1 10.93 10.7 7 16 7s10.9 3.93 12.93 9C26.9 21.07 21.3 25 16 25z"/><path fill="#fff" style="fill:var(--color1, #fff)" d="M16 10a5.998 5.998 0 0 0-4.242 10.243 5.996 5.996 0 0 0 6.539 1.301 5.999 5.999 0 0 0-2.296-11.543zm0 10a4.004 4.004 0 0 1-3.695-2.469 3.992 3.992 0 0 1 .867-4.359A4 4 0 1 1 16 20z"/></symbol></defs></svg>